<svg xmlns="http://www.w3.org/2000/svg" viewBox="0 0 32 32" width="32" height="32">
  <defs>
    <linearGradient id="gradient" x1="0%" y1="0%" x2="100%" y2="100%">
      <stop offset="0%" style="stop-color:#059669;stop-opacity:1" />
      <stop offset="100%" style="stop-color:#047857;stop-opacity:1" />
    </linearGradient>
  </defs>
  
  <!-- Background circle -->
  <circle cx="16" cy="16" r="15" fill="url(#gradient)" stroke="#ffffff" stroke-width="1"/>
  
  <!-- Islamic crescent moon -->
  <path d="M16 8 C12 8, 8 12, 8 16 C8 20, 12 24, 16 24 C20 24, 24 20, 24 16 C24 12, 20 8, 16 8 Z" fill="none" stroke="#ffffff" stroke-width="2"/>
  <path d="M16 8 C20 8, 24 12, 24 16 C24 20, 20 24, 16 24 C16 20, 16 16, 16 12 Z" fill="#ffffff"/>
  
  <!-- Star -->
  <path d="M16 4 L18 10 L24 10 L20 14 L22 20 L16 16 L10 20 L12 14 L8 10 L14 10 Z" fill="#ffffff" opacity="0.8"/>
</svg>
